<svg width="27" height="28" viewBox="0 0 27 28" fill="none" xmlns="http://www.w3.org/2000/svg">
<g id="Arrow Up Contained 01">
<path id="Icon" d="M8.77062 14.831C8.45242 15.0961 8.40942 15.5691 8.6746 15.8873C8.93977 16.2055 9.41269 16.2485 9.7309 15.9833L8.77062 14.831ZM13.7255 11.6782L14.2056 11.102C13.9275 10.8703 13.5235 10.8703 13.2453 11.102L13.7255 11.6782ZM17.72 15.9833C18.0382 16.2485 18.5111 16.2055 18.7763 15.8873C19.0415 15.5691 18.9985 15.0961 18.6803 14.831L17.72 15.9833ZM9.7309 15.9833L14.2056 12.2544L13.2453 11.102L8.77062 14.831L9.7309 15.9833ZM13.2453 12.2544L17.72 15.9833L18.6803 14.831L14.2056 11.102L13.2453 12.2544ZM22.875 14.2101C22.875 19.3878 18.6777 23.5851 13.5 23.5851V25.0851C19.5061 25.0851 24.375 20.2162 24.375 14.2101H22.875ZM13.5 23.5851C8.32233 23.5851 4.125 19.3878 4.125 14.2101H2.625C2.625 20.2162 7.4939 25.0851 13.5 25.0851V23.5851ZM4.125 14.2101C4.125 9.03241 8.32233 4.83508 13.5 4.83508V3.33508C7.4939 3.33508 2.625 8.20399 2.625 14.2101H4.125ZM13.5 4.83508C18.6777 4.83508 22.875 9.03241 22.875 14.2101H24.375C24.375 8.20399 19.5061 3.33508 13.5 3.33508V4.83508Z" fill="black"/>
</g>
</svg>
